<svg width="41" height="40" viewBox="0 0 41 40" fill="none" xmlns="http://www.w3.org/2000/svg">
<path d="M20.5988 26.9508L12.5912 34.7631C11.6217 35.676 10.3269 36.1861 8.97951 36.1861C7.63213 36.1861 6.33733 35.676 5.36783 34.7631C4.89234 34.301 4.51505 33.7519 4.25761 33.1472C4.00017 32.5426 3.86765 31.8943 3.86765 31.2395C3.86765 30.5848 4.00017 29.9364 4.25761 29.3318C4.51505 28.7271 4.89234 28.178 5.36783 27.7159L13.3754 19.9036C13.7641 19.5245 13.9824 19.0103 13.9824 18.4741C13.9824 17.9379 13.7641 17.4236 13.3754 17.0445C12.9868 16.6654 12.4597 16.4524 11.9101 16.4524C11.3605 16.4524 10.8334 16.6654 10.4448 17.0445L2.43722 24.8769C0.824053 26.59 -0.0483949 28.8448 0.00207359 31.1706C0.0525421 33.4963 1.02202 35.7131 2.70806 37.358C4.39409 39.0029 6.66631 39.9487 9.05019 39.998C11.4341 40.0472 13.7453 39.1961 15.5012 37.6222L23.5294 29.8099C23.918 29.4308 24.1363 28.9166 24.1363 28.3804C24.1363 27.8442 23.918 27.33 23.5294 26.9508C23.1408 26.5717 22.6137 26.3587 22.0641 26.3587C21.5145 26.3587 20.9874 26.5717 20.5988 26.9508ZM38.3063 2.62801C36.5702 0.944761 34.222 0 31.7743 0C29.3267 0 26.9785 0.944761 25.2424 2.62801L17.2141 10.4403C17.0217 10.628 16.8691 10.8509 16.7649 11.0962C16.6608 11.3415 16.6072 11.6044 16.6072 11.8699C16.6072 12.1354 16.6608 12.3983 16.7649 12.6435C16.8691 12.8888 17.0217 13.1117 17.2141 13.2994C17.4065 13.4872 17.635 13.6361 17.8864 13.7377C18.1378 13.8393 18.4073 13.8916 18.6794 13.8916C18.9516 13.8916 19.221 13.8393 19.4724 13.7377C19.7239 13.6361 19.9523 13.4872 20.1447 13.2994L28.1523 5.48715C29.1218 4.57429 30.4166 4.06414 31.764 4.06414C33.1114 4.06414 34.4062 4.57429 35.3757 5.48715C35.8512 5.94921 36.2285 6.49834 36.4859 7.103C36.7433 7.70767 36.8759 8.35598 36.8759 9.01073C36.8759 9.66549 36.7433 10.3138 36.4859 10.9185C36.2285 11.5231 35.8512 12.0722 35.3757 12.5343L27.3681 20.3466C27.1746 20.5338 27.0211 20.7565 26.9163 21.0018C26.8116 21.2472 26.7576 21.5104 26.7576 21.7762C26.7576 22.042 26.8116 22.3051 26.9163 22.5505C27.0211 22.7959 27.1746 23.0186 27.3681 23.2057C27.5599 23.3945 27.7882 23.5443 28.0397 23.6465C28.2912 23.7487 28.5609 23.8013 28.8334 23.8013C29.1058 23.8013 29.3756 23.7487 29.6271 23.6465C29.8786 23.5443 30.1068 23.3945 30.2987 23.2057L38.3063 15.3733C40.0316 13.6795 41 11.3886 41 9.00066C41 6.61273 40.0316 4.32179 38.3063 2.62801ZM13.8295 26.5078C14.0223 26.6945 14.251 26.8421 14.5025 26.9423C14.7539 27.0425 15.0232 27.0933 15.2948 27.0917C15.5664 27.0933 15.8356 27.0425 16.0871 26.9423C16.3385 26.8421 16.5672 26.6945 16.7601 26.5078L26.914 16.6015C27.3027 16.2224 27.521 15.7082 27.521 15.172C27.521 14.6358 27.3027 14.1215 26.914 13.7424C26.5254 13.3633 25.9983 13.1503 25.4487 13.1503C24.8991 13.1503 24.3721 13.3633 23.9834 13.7424L13.8295 23.6487C13.636 23.8359 13.4825 24.0586 13.3777 24.3039C13.2729 24.5493 13.219 24.8125 13.219 25.0783C13.219 25.3441 13.2729 25.6072 13.3777 25.8526C13.4825 26.098 13.636 26.3207 13.8295 26.5078Z" fill="black"/>
</svg>
